<svg width="702" height="830" viewBox="0 0 702 830" fill="none" xmlns="http://www.w3.org/2000/svg">
<g filter="url(#filter0_d_185_62)">
<rect x="4" y="4" width="694" height="821" rx="30" fill="#EFEFEF"/>
<g filter="url(#filter1_d_185_62)">
<rect x="160" y="38.6636" width="344.151" height="248.401" rx="30" fill="#EFEFEF"/>
<rect x="161" y="39.6636" width="342.151" height="246.401" rx="29" stroke="#3A7939" stroke-opacity="0.52" stroke-width="2"/>
<path d="M302.779 125.373V218.464H291.506V137.191H290.96L268.233 152.282V140.827L291.506 125.373H302.779ZM359.37 219.737C353.127 219.737 347.612 218.63 342.824 216.418C338.067 214.176 334.354 211.1 331.688 207.191C329.021 203.252 327.703 198.767 327.733 193.737C327.703 189.797 328.476 186.161 330.051 182.827C331.627 179.464 333.779 176.661 336.506 174.418C339.264 172.146 342.339 170.706 345.733 170.1V169.555C341.279 168.403 337.733 165.903 335.097 162.055C332.46 158.176 331.157 153.767 331.188 148.827C331.157 144.1 332.354 139.873 334.779 136.146C337.203 132.418 340.536 129.479 344.779 127.327C349.051 125.176 353.915 124.1 359.37 124.1C364.764 124.1 369.582 125.176 373.824 127.327C378.067 129.479 381.4 132.418 383.824 136.146C386.279 139.873 387.521 144.1 387.551 148.827C387.521 153.767 386.173 158.176 383.506 162.055C380.87 165.903 377.37 168.403 373.006 169.555V170.1C376.37 170.706 379.4 172.146 382.097 174.418C384.794 176.661 386.945 179.464 388.551 182.827C390.157 186.161 390.976 189.797 391.006 193.737C390.976 198.767 389.612 203.252 386.915 207.191C384.248 211.1 380.536 214.176 375.779 216.418C371.051 218.63 365.582 219.737 359.37 219.737ZM359.37 209.737C363.582 209.737 367.218 209.055 370.279 207.691C373.339 206.327 375.703 204.403 377.37 201.918C379.036 199.434 379.885 196.524 379.915 193.191C379.885 189.676 378.976 186.57 377.188 183.873C375.4 181.176 372.96 179.055 369.87 177.509C366.809 175.964 363.309 175.191 359.37 175.191C355.4 175.191 351.854 175.964 348.733 177.509C345.642 179.055 343.203 181.176 341.415 183.873C339.657 186.57 338.794 189.676 338.824 193.191C338.794 196.524 339.597 199.434 341.233 201.918C342.9 204.403 345.279 206.327 348.37 207.691C351.46 209.055 355.127 209.737 359.37 209.737ZM359.37 165.555C362.703 165.555 365.657 164.888 368.233 163.555C370.839 162.221 372.885 160.358 374.37 157.964C375.854 155.57 376.612 152.767 376.642 149.555C376.612 146.403 375.87 143.661 374.415 141.327C372.96 138.964 370.945 137.146 368.37 135.873C365.794 134.57 362.794 133.918 359.37 133.918C355.885 133.918 352.839 134.57 350.233 135.873C347.627 137.146 345.612 138.964 344.188 141.327C342.764 143.661 342.067 146.403 342.097 149.555C342.067 152.767 342.779 155.57 344.233 157.964C345.718 160.358 347.764 162.221 350.37 163.555C352.976 164.888 355.976 165.555 359.37 165.555Z" fill="black" fill-opacity="0.52"/>
<path d="M284.409 66.9091H287.874V89.8068H288.159L304.068 66.9091H307.477V96H303.954V73.1591H303.67L287.818 96H284.409V66.9091ZM324.526 83.7273V86.8523H312.992V83.7273H324.526ZM315.833 74.1818V96H312.48V74.1818H315.833ZM331.23 96.4545C329.261 96.4545 327.532 95.9858 326.046 95.0483C324.568 94.1108 323.413 92.7992 322.58 91.1136C321.756 89.428 321.344 87.4583 321.344 85.2045C321.344 82.9318 321.756 80.9479 322.58 79.2528C323.413 77.5578 324.568 76.2415 326.046 75.304C327.532 74.3665 329.261 73.8977 331.23 73.8977C333.2 73.8977 334.923 74.3665 336.401 75.304C337.887 76.2415 339.043 77.5578 339.867 79.2528C340.7 80.9479 341.117 82.9318 341.117 85.2045C341.117 87.4583 340.7 89.428 339.867 91.1136C339.043 92.7992 337.887 94.1108 336.401 95.0483C334.923 95.9858 333.2 96.4545 331.23 96.4545ZM331.23 93.4432C332.726 93.4432 333.958 93.0597 334.923 92.2926C335.889 91.5256 336.604 90.517 337.068 89.267C337.532 88.017 337.764 86.6629 337.764 85.2045C337.764 83.7462 337.532 82.3873 337.068 81.1278C336.604 79.8684 335.889 78.8504 334.923 78.0739C333.958 77.2973 332.726 76.9091 331.23 76.9091C329.734 76.9091 328.503 77.2973 327.537 78.0739C326.571 78.8504 325.856 79.8684 325.392 81.1278C324.928 82.3873 324.696 83.7462 324.696 85.2045C324.696 86.6629 324.928 88.017 325.392 89.267C325.856 90.517 326.571 91.5256 327.537 92.2926C328.503 93.0597 329.734 93.4432 331.23 93.4432ZM361.173 83.5568V86.6818H349.128V83.5568H361.173ZM349.923 74.1818V96H346.571V74.1818H349.923ZM363.73 74.1818V96H360.378V74.1818H363.73ZM372.75 82.0795H379C381.557 82.0795 383.512 82.7282 384.867 84.0256C386.221 85.3229 386.898 86.9659 386.898 88.9545C386.898 90.2614 386.595 91.4498 385.989 92.5199C385.383 93.5805 384.493 94.428 383.318 95.0625C382.144 95.6875 380.705 96 379 96H369.852V74.1818H373.205V92.875H379C380.326 92.875 381.415 92.5246 382.267 91.8239C383.119 91.1231 383.546 90.2235 383.546 89.125C383.546 87.9697 383.119 87.0275 382.267 86.2983C381.415 85.5691 380.326 85.2045 379 85.2045H372.75V82.0795Z" fill="black" fill-opacity="0.52"/>
<path d="M231.216 262.629C229.529 262.629 228.024 262.34 226.703 261.76C225.391 261.181 224.347 260.375 223.571 259.344C222.804 258.304 222.387 257.098 222.318 255.726H225.54C225.608 256.57 225.898 257.298 226.409 257.912C226.921 258.517 227.59 258.986 228.416 259.318C229.243 259.651 230.159 259.817 231.165 259.817C232.29 259.817 233.287 259.621 234.156 259.229C235.026 258.837 235.708 258.291 236.202 257.592C236.696 256.894 236.943 256.084 236.943 255.163C236.943 254.2 236.705 253.352 236.227 252.619C235.75 251.878 235.051 251.298 234.131 250.881C233.21 250.463 232.085 250.254 230.756 250.254H228.659V247.442H230.756C231.796 247.442 232.708 247.254 233.492 246.879C234.284 246.504 234.902 245.976 235.345 245.294C235.797 244.612 236.023 243.811 236.023 242.891C236.023 242.004 235.827 241.233 235.435 240.577C235.043 239.921 234.489 239.409 233.773 239.043C233.065 238.676 232.23 238.493 231.267 238.493C230.364 238.493 229.512 238.659 228.71 238.992C227.918 239.315 227.27 239.788 226.767 240.411C226.264 241.024 225.992 241.766 225.949 242.635H222.881C222.932 241.263 223.345 240.061 224.121 239.03C224.896 237.99 225.911 237.181 227.164 236.601C228.425 236.021 229.81 235.732 231.318 235.732C232.938 235.732 234.327 236.06 235.486 236.716C236.645 237.364 237.536 238.22 238.158 239.286C238.78 240.351 239.091 241.502 239.091 242.737C239.091 244.212 238.703 245.469 237.928 246.509C237.161 247.548 236.117 248.269 234.796 248.669V248.874C236.449 249.146 237.74 249.85 238.669 250.983C239.598 252.108 240.063 253.502 240.063 255.163C240.063 256.587 239.675 257.865 238.899 258.999C238.132 260.124 237.084 261.01 235.754 261.658C234.425 262.306 232.912 262.629 231.216 262.629ZM258.485 251.073V253.885H247.644V251.073H258.485ZM248.36 242.635V262.271H245.342V242.635H248.36ZM260.786 242.635V262.271H257.769V242.635H260.786ZM272.074 262.732C270.83 262.732 269.7 262.497 268.686 262.029C267.672 261.551 266.867 260.865 266.27 259.97C265.673 259.067 265.375 257.976 265.375 256.698C265.375 255.573 265.597 254.661 266.04 253.962C266.483 253.254 267.075 252.7 267.817 252.3C268.558 251.899 269.377 251.601 270.271 251.405C271.175 251.2 272.083 251.038 272.994 250.919C274.188 250.766 275.155 250.651 275.896 250.574C276.646 250.489 277.192 250.348 277.533 250.152C277.882 249.956 278.057 249.615 278.057 249.129V249.027C278.057 247.766 277.712 246.786 277.021 246.087C276.34 245.388 275.304 245.038 273.915 245.038C272.475 245.038 271.345 245.354 270.527 245.984C269.709 246.615 269.134 247.288 268.801 248.004L265.938 246.982C266.449 245.788 267.131 244.859 267.983 244.195C268.844 243.521 269.781 243.053 270.796 242.788C271.818 242.516 272.824 242.379 273.813 242.379C274.443 242.379 275.168 242.456 275.986 242.609C276.813 242.754 277.61 243.057 278.377 243.517C279.152 243.977 279.796 244.672 280.307 245.601C280.818 246.53 281.074 247.774 281.074 249.334V262.271H278.057V259.612H277.904C277.699 260.038 277.358 260.494 276.881 260.98C276.404 261.466 275.769 261.879 274.976 262.22C274.183 262.561 273.216 262.732 272.074 262.732ZM272.534 260.021C273.727 260.021 274.733 259.787 275.551 259.318C276.378 258.85 277 258.244 277.418 257.503C277.844 256.761 278.057 255.982 278.057 255.163V252.402C277.929 252.556 277.648 252.696 277.213 252.824C276.787 252.943 276.293 253.05 275.73 253.144C275.176 253.229 274.635 253.306 274.107 253.374C273.587 253.433 273.165 253.484 272.841 253.527C272.057 253.629 271.324 253.796 270.642 254.026C269.969 254.247 269.423 254.584 269.006 255.036C268.597 255.479 268.392 256.084 268.392 256.851C268.392 257.899 268.78 258.692 269.556 259.229C270.34 259.757 271.333 260.021 272.534 260.021ZM297.319 258.181L304.172 242.635H307.035L298.547 262.271H296.092L287.757 242.635H290.569L297.319 258.181ZM289.598 242.635V262.271H286.581V242.635H289.598ZM305.041 262.271V242.635H308.058V262.271H305.041ZM321.814 262.681C319.922 262.681 318.29 262.263 316.917 261.428C315.554 260.584 314.501 259.408 313.76 257.899C313.027 256.382 312.66 254.618 312.66 252.607C312.66 250.595 313.027 248.823 313.76 247.288C314.501 245.746 315.532 244.544 316.853 243.683C318.183 242.814 319.734 242.379 321.507 242.379C322.53 242.379 323.54 242.55 324.537 242.891C325.534 243.232 326.442 243.786 327.26 244.553C328.078 245.311 328.73 246.317 329.216 247.57C329.701 248.823 329.944 250.365 329.944 252.198V253.476H314.808V250.868H326.876C326.876 249.76 326.655 248.771 326.211 247.902C325.777 247.033 325.155 246.347 324.345 245.844C323.544 245.341 322.598 245.09 321.507 245.09C320.305 245.09 319.265 245.388 318.388 245.984C317.518 246.573 316.849 247.34 316.38 248.286C315.912 249.232 315.677 250.246 315.677 251.328V253.067C315.677 254.55 315.933 255.807 316.444 256.838C316.964 257.861 317.684 258.641 318.605 259.178C319.525 259.706 320.595 259.97 321.814 259.97C322.606 259.97 323.322 259.859 323.961 259.638C324.609 259.408 325.167 259.067 325.636 258.615C326.105 258.155 326.467 257.584 326.723 256.902L329.638 257.72C329.331 258.709 328.815 259.578 328.091 260.328C327.366 261.07 326.471 261.649 325.406 262.067C324.341 262.476 323.143 262.681 321.814 262.681ZM347.676 251.073V253.885H336.835V251.073H347.676ZM337.551 242.635V262.271H334.534V242.635H337.551ZM349.977 242.635V262.271H346.96V242.635H349.977ZM361.265 262.732C360.021 262.732 358.892 262.497 357.878 262.029C356.863 261.551 356.058 260.865 355.461 259.97C354.865 259.067 354.567 257.976 354.567 256.698C354.567 255.573 354.788 254.661 355.231 253.962C355.675 253.254 356.267 252.7 357.008 252.3C357.75 251.899 358.568 251.601 359.463 251.405C360.366 251.2 361.274 251.038 362.186 250.919C363.379 250.766 364.346 250.651 365.088 250.574C365.838 250.489 366.383 250.348 366.724 250.152C367.074 249.956 367.248 249.615 367.248 249.129V249.027C367.248 247.766 366.903 246.786 366.213 246.087C365.531 245.388 364.496 245.038 363.106 245.038C361.666 245.038 360.537 245.354 359.719 245.984C358.9 246.615 358.325 247.288 357.993 248.004L355.129 246.982C355.64 245.788 356.322 244.859 357.175 244.195C358.035 243.521 358.973 243.053 359.987 242.788C361.01 242.516 362.015 242.379 363.004 242.379C363.635 242.379 364.359 242.456 365.177 242.609C366.004 242.754 366.801 243.057 367.568 243.517C368.344 243.977 368.987 244.672 369.498 245.601C370.01 246.53 370.265 247.774 370.265 249.334V262.271H367.248V259.612H367.095C366.89 260.038 366.55 260.494 366.072 260.98C365.595 261.466 364.96 261.879 364.167 262.22C363.375 262.561 362.407 262.732 361.265 262.732ZM361.726 260.021C362.919 260.021 363.925 259.787 364.743 259.318C365.569 258.85 366.192 258.244 366.609 257.503C367.035 256.761 367.248 255.982 367.248 255.163V252.402C367.121 252.556 366.839 252.696 366.405 252.824C365.978 252.943 365.484 253.05 364.922 253.144C364.368 253.229 363.826 253.306 363.298 253.374C362.778 253.433 362.356 253.484 362.032 253.527C361.248 253.629 360.515 253.796 359.834 254.026C359.16 254.247 358.615 254.584 358.197 255.036C357.788 255.479 357.584 256.084 357.584 256.851C357.584 257.899 357.971 258.692 358.747 259.229C359.531 259.757 360.524 260.021 361.726 260.021ZM373.1 245.448V242.635H389.055V245.448H382.612V262.271H379.595V245.448H373.1ZM400.669 262.681C398.777 262.681 397.145 262.263 395.773 261.428C394.409 260.584 393.357 259.408 392.615 257.899C391.882 256.382 391.516 254.618 391.516 252.607C391.516 250.595 391.882 248.823 392.615 247.288C393.357 245.746 394.388 244.544 395.709 243.683C397.039 242.814 398.59 242.379 400.362 242.379C401.385 242.379 402.395 242.55 403.392 242.891C404.389 243.232 405.297 243.786 406.115 244.553C406.933 245.311 407.585 246.317 408.071 247.57C408.557 248.823 408.8 250.365 408.8 252.198V253.476H393.664V250.868H405.732C405.732 249.76 405.51 248.771 405.067 247.902C404.632 247.033 404.01 246.347 403.2 245.844C402.399 245.341 401.453 245.09 400.362 245.09C399.161 245.09 398.121 245.388 397.243 245.984C396.374 246.573 395.705 247.34 395.236 248.286C394.767 249.232 394.533 250.246 394.533 251.328V253.067C394.533 254.55 394.789 255.807 395.3 256.838C395.82 257.861 396.54 258.641 397.46 259.178C398.381 259.706 399.45 259.97 400.669 259.97C401.462 259.97 402.178 259.859 402.817 259.638C403.465 259.408 404.023 259.067 404.492 258.615C404.96 258.155 405.323 257.584 405.578 256.902L408.493 257.72C408.186 258.709 407.671 259.578 406.946 260.328C406.222 261.07 405.327 261.649 404.262 262.067C403.196 262.476 401.999 262.681 400.669 262.681ZM411.651 262.271V259.459H412.367C412.955 259.459 413.445 259.344 413.837 259.114C414.229 258.875 414.544 258.462 414.783 257.874C415.03 257.277 415.217 256.45 415.345 255.394C415.482 254.328 415.58 252.973 415.639 251.328L415.997 242.635H429.088V262.271H426.071V245.448H418.861L418.554 252.453C418.486 254.064 418.341 255.483 418.119 256.71C417.906 257.929 417.578 258.952 417.135 259.779C416.7 260.605 416.121 261.227 415.396 261.645C414.672 262.063 413.764 262.271 412.673 262.271H411.651ZM437.232 249.743H442.857C445.158 249.743 446.918 250.327 448.137 251.494C449.355 252.662 449.965 254.141 449.965 255.931C449.965 257.107 449.692 258.176 449.146 259.139C448.601 260.094 447.8 260.857 446.743 261.428C445.686 261.99 444.391 262.271 442.857 262.271H434.624V242.635H437.641V259.459H442.857C444.05 259.459 445.03 259.144 445.797 258.513C446.564 257.882 446.948 257.073 446.948 256.084C446.948 255.044 446.564 254.196 445.797 253.54C445.03 252.884 444.05 252.556 442.857 252.556H437.232V249.743Z" fill="black" fill-opacity="0.52"/>
</g>
<path d="M556.333 375.354L546.958 385.667L537.583 375.354" stroke="#0E8047" stroke-width="1.5" stroke-linecap="round" stroke-linejoin="round"/>
<path d="M123 353C123 344.716 129.716 338 138 338H572C580.284 338 587 344.716 587 353V398.932C587 407.216 580.284 413.932 572 413.932H138C129.716 413.932 123 407.216 123 398.932V353Z" fill="#60A82A" fill-opacity="0.3"/>
<path d="M256.805 364.227V387.5H253.987V366.727H242.26V387.5H239.442V364.227H256.805ZM269.217 387.864C267.642 387.864 266.259 387.489 265.07 386.739C263.888 385.989 262.964 384.939 262.297 383.591C261.638 382.242 261.308 380.667 261.308 378.864C261.308 377.045 261.638 375.458 262.297 374.102C262.964 372.746 263.888 371.693 265.07 370.943C266.259 370.193 267.642 369.818 269.217 369.818C270.793 369.818 272.172 370.193 273.354 370.943C274.543 371.693 275.467 372.746 276.126 374.102C276.793 375.458 277.126 377.045 277.126 378.864C277.126 380.667 276.793 382.242 276.126 383.591C275.467 384.939 274.543 385.989 273.354 386.739C272.172 387.489 270.793 387.864 269.217 387.864ZM269.217 385.455C270.414 385.455 271.399 385.148 272.172 384.534C272.945 383.92 273.517 383.114 273.888 382.114C274.259 381.114 274.445 380.03 274.445 378.864C274.445 377.697 274.259 376.61 273.888 375.602C273.517 374.595 272.945 373.78 272.172 373.159C271.399 372.538 270.414 372.227 269.217 372.227C268.02 372.227 267.036 372.538 266.263 373.159C265.49 373.78 264.918 374.595 264.547 375.602C264.176 376.61 263.99 377.697 263.99 378.864C263.99 380.03 264.176 381.114 264.547 382.114C264.918 383.114 265.49 383.92 266.263 384.534C267.036 385.148 268.02 385.455 269.217 385.455ZM300.993 370.045V372.545H292.902V387.5H290.22V370.045H300.993ZM304.908 394.045V370.045H307.499V372.818H307.817C308.014 372.515 308.286 372.129 308.635 371.659C308.991 371.182 309.499 370.758 310.158 370.386C310.824 370.008 311.726 369.818 312.862 369.818C314.332 369.818 315.627 370.186 316.749 370.92C317.87 371.655 318.745 372.697 319.374 374.045C320.002 375.394 320.317 376.985 320.317 378.818C320.317 380.667 320.002 382.269 319.374 383.625C318.745 384.973 317.874 386.019 316.76 386.761C315.646 387.496 314.362 387.864 312.908 387.864C311.786 387.864 310.889 387.678 310.214 387.307C309.54 386.928 309.021 386.5 308.658 386.023C308.294 385.538 308.014 385.136 307.817 384.818H307.589V394.045H304.908ZM307.544 378.773C307.544 380.091 307.737 381.254 308.124 382.261C308.51 383.261 309.074 384.045 309.817 384.614C310.559 385.174 311.468 385.455 312.544 385.455C313.665 385.455 314.601 385.159 315.351 384.568C316.108 383.97 316.677 383.167 317.055 382.159C317.442 381.144 317.635 380.015 317.635 378.773C317.635 377.545 317.446 376.439 317.067 375.455C316.696 374.462 316.131 373.678 315.374 373.102C314.624 372.519 313.68 372.227 312.544 372.227C311.453 372.227 310.536 372.504 309.794 373.057C309.052 373.602 308.491 374.367 308.112 375.352C307.733 376.33 307.544 377.47 307.544 378.773ZM325.51 394.045C325.055 394.045 324.65 394.008 324.294 393.932C323.938 393.864 323.692 393.795 323.555 393.727L324.237 391.364C324.889 391.53 325.464 391.591 325.964 391.545C326.464 391.5 326.908 391.277 327.294 390.875C327.688 390.481 328.048 389.841 328.374 388.955L328.874 387.591L322.419 370.045H325.328L330.146 383.955H330.328L335.146 370.045H338.055L330.646 390.045C330.313 390.947 329.9 391.693 329.408 392.284C328.915 392.883 328.343 393.326 327.692 393.614C327.048 393.902 326.321 394.045 325.51 394.045ZM341.595 387.5V370.045H355.322V387.5H352.641V372.545H344.277V387.5H341.595ZM360.22 387.5V370.045H373.947V387.5H371.266V372.545H362.902V387.5H360.22ZM383.982 387.909C382.875 387.909 381.872 387.701 380.97 387.284C380.069 386.86 379.353 386.25 378.822 385.455C378.292 384.652 378.027 383.682 378.027 382.545C378.027 381.545 378.224 380.735 378.618 380.114C379.012 379.485 379.538 378.992 380.197 378.636C380.857 378.28 381.584 378.015 382.379 377.841C383.182 377.659 383.989 377.515 384.8 377.409C385.86 377.273 386.72 377.17 387.379 377.102C388.046 377.027 388.531 376.902 388.834 376.727C389.144 376.553 389.3 376.25 389.3 375.818V375.727C389.3 374.606 388.993 373.735 388.379 373.114C387.773 372.492 386.853 372.182 385.618 372.182C384.338 372.182 383.334 372.462 382.607 373.023C381.879 373.583 381.368 374.182 381.072 374.818L378.527 373.909C378.982 372.848 379.588 372.023 380.345 371.432C381.11 370.833 381.944 370.417 382.845 370.182C383.754 369.939 384.648 369.818 385.527 369.818C386.088 369.818 386.732 369.886 387.459 370.023C388.194 370.152 388.902 370.42 389.584 370.83C390.273 371.239 390.845 371.856 391.3 372.682C391.754 373.508 391.982 374.614 391.982 376V387.5H389.3V385.136H389.163C388.982 385.515 388.679 385.92 388.254 386.352C387.83 386.784 387.266 387.152 386.561 387.455C385.857 387.758 384.997 387.909 383.982 387.909ZM384.391 385.5C385.451 385.5 386.345 385.292 387.072 384.875C387.807 384.458 388.36 383.92 388.732 383.261C389.11 382.602 389.3 381.909 389.3 381.182V378.727C389.186 378.864 388.936 378.989 388.55 379.102C388.171 379.208 387.732 379.303 387.232 379.386C386.739 379.462 386.258 379.53 385.788 379.591C385.326 379.644 384.951 379.689 384.663 379.727C383.966 379.818 383.315 379.966 382.709 380.17C382.11 380.367 381.625 380.667 381.254 381.068C380.891 381.462 380.709 382 380.709 382.682C380.709 383.614 381.054 384.318 381.743 384.795C382.44 385.265 383.322 385.5 384.391 385.5ZM406.422 383.864L412.513 370.045H415.058L407.513 387.5H405.331L397.922 370.045H400.422L406.422 383.864ZM399.558 370.045V387.5H396.876V370.045H399.558ZM413.286 387.5V370.045H415.967V387.5H413.286Z" fill="#0E8047"/>
<rect x="123" y="479" width="464" height="75.9322" rx="15" fill="#60A82A" fill-opacity="0.3"/>
<path d="M262.993 501.727V525H260.175V504.227H248.447V525H245.629V501.727H262.993ZM275.405 525.364C273.829 525.364 272.446 524.989 271.257 524.239C270.075 523.489 269.151 522.439 268.484 521.091C267.825 519.742 267.496 518.167 267.496 516.364C267.496 514.545 267.825 512.958 268.484 511.602C269.151 510.246 270.075 509.193 271.257 508.443C272.446 507.693 273.829 507.318 275.405 507.318C276.981 507.318 278.359 507.693 279.541 508.443C280.731 509.193 281.655 510.246 282.314 511.602C282.981 512.958 283.314 514.545 283.314 516.364C283.314 518.167 282.981 519.742 282.314 521.091C281.655 522.439 280.731 523.489 279.541 524.239C278.359 524.989 276.981 525.364 275.405 525.364ZM275.405 522.955C276.602 522.955 277.587 522.648 278.359 522.034C279.132 521.42 279.704 520.614 280.075 519.614C280.446 518.614 280.632 517.53 280.632 516.364C280.632 515.197 280.446 514.11 280.075 513.102C279.704 512.095 279.132 511.28 278.359 510.659C277.587 510.038 276.602 509.727 275.405 509.727C274.208 509.727 273.223 510.038 272.45 510.659C271.678 511.28 271.106 512.095 270.734 513.102C270.363 514.11 270.178 515.197 270.178 516.364C270.178 517.53 270.363 518.614 270.734 519.614C271.106 520.614 271.678 521.42 272.45 522.034C273.223 522.648 274.208 522.955 275.405 522.955ZM301.544 525.409C300.438 525.409 299.434 525.201 298.533 524.784C297.631 524.36 296.915 523.75 296.385 522.955C295.855 522.152 295.589 521.182 295.589 520.045C295.589 519.045 295.786 518.235 296.18 517.614C296.574 516.985 297.101 516.492 297.76 516.136C298.419 515.78 299.146 515.515 299.942 515.341C300.745 515.159 301.552 515.015 302.362 514.909C303.423 514.773 304.283 514.67 304.942 514.602C305.608 514.527 306.093 514.402 306.396 514.227C306.707 514.053 306.862 513.75 306.862 513.318V513.227C306.862 512.106 306.555 511.235 305.942 510.614C305.336 509.992 304.415 509.682 303.18 509.682C301.9 509.682 300.896 509.962 300.169 510.523C299.442 511.083 298.93 511.682 298.635 512.318L296.089 511.409C296.544 510.348 297.15 509.523 297.908 508.932C298.673 508.333 299.506 507.917 300.408 507.682C301.317 507.439 302.211 507.318 303.089 507.318C303.65 507.318 304.294 507.386 305.021 507.523C305.756 507.652 306.464 507.92 307.146 508.33C307.836 508.739 308.408 509.356 308.862 510.182C309.317 511.008 309.544 512.114 309.544 513.5V525H306.862V522.636H306.726C306.544 523.015 306.241 523.42 305.817 523.852C305.393 524.284 304.828 524.652 304.124 524.955C303.419 525.258 302.559 525.409 301.544 525.409ZM301.953 523C303.014 523 303.908 522.792 304.635 522.375C305.37 521.958 305.923 521.42 306.294 520.761C306.673 520.102 306.862 519.409 306.862 518.682V516.227C306.749 516.364 306.499 516.489 306.112 516.602C305.733 516.708 305.294 516.803 304.794 516.886C304.302 516.962 303.821 517.03 303.351 517.091C302.889 517.144 302.514 517.189 302.226 517.227C301.529 517.318 300.877 517.466 300.271 517.67C299.673 517.867 299.188 518.167 298.817 518.568C298.453 518.962 298.271 519.5 298.271 520.182C298.271 521.114 298.616 521.818 299.305 522.295C300.002 522.765 300.885 523 301.953 523ZM315.541 531.545C315.087 531.545 314.681 531.508 314.325 531.432C313.969 531.364 313.723 531.295 313.587 531.227L314.268 528.864C314.92 529.03 315.496 529.091 315.996 529.045C316.496 529 316.939 528.777 317.325 528.375C317.719 527.981 318.079 527.341 318.405 526.455L318.905 525.091L312.45 507.545H315.359L320.178 521.455H320.359L325.178 507.545H328.087L320.678 527.545C320.344 528.447 319.931 529.193 319.439 529.784C318.946 530.383 318.375 530.826 317.723 531.114C317.079 531.402 316.352 531.545 315.541 531.545ZM328.294 530V522.5H329.749C330.105 522.129 330.411 521.727 330.669 521.295C330.927 520.864 331.15 520.352 331.339 519.761C331.536 519.163 331.703 518.436 331.839 517.58C331.976 516.716 332.097 515.674 332.203 514.455L332.794 507.545H343.885V522.5H346.567V530H343.885V525H330.976V530H328.294ZM332.794 522.5H341.203V510.045H335.294L334.839 514.455C334.65 516.28 334.415 517.875 334.135 519.239C333.855 520.602 333.408 521.689 332.794 522.5ZM352.808 521.045L361.217 507.545H364.308V525H361.626V511.5L353.263 525H350.126V507.545H352.808V521.045ZM366.845 510.045V507.545H381.027V510.045H375.3V525H372.618V510.045H366.845ZM391.124 525.364C389.548 525.364 388.165 524.989 386.976 524.239C385.794 523.489 384.87 522.439 384.203 521.091C383.544 519.742 383.214 518.167 383.214 516.364C383.214 514.545 383.544 512.958 384.203 511.602C384.87 510.246 385.794 509.193 386.976 508.443C388.165 507.693 389.548 507.318 391.124 507.318C392.699 507.318 394.078 507.693 395.26 508.443C396.449 509.193 397.374 510.246 398.033 511.602C398.699 512.958 399.033 514.545 399.033 516.364C399.033 518.167 398.699 519.742 398.033 521.091C397.374 522.439 396.449 523.489 395.26 524.239C394.078 524.989 392.699 525.364 391.124 525.364ZM391.124 522.955C392.321 522.955 393.305 522.648 394.078 522.034C394.851 521.42 395.423 520.614 395.794 519.614C396.165 518.614 396.351 517.53 396.351 516.364C396.351 515.197 396.165 514.11 395.794 513.102C395.423 512.095 394.851 511.28 394.078 510.659C393.305 510.038 392.321 509.727 391.124 509.727C389.927 509.727 388.942 510.038 388.169 510.659C387.396 511.28 386.824 512.095 386.453 513.102C386.082 514.11 385.896 515.197 385.896 516.364C385.896 517.53 386.082 518.614 386.453 519.614C386.824 520.614 387.396 521.42 388.169 522.034C388.942 522.648 389.927 522.955 391.124 522.955ZM403.126 531.545V507.545H405.717V510.318H406.036C406.232 510.015 406.505 509.629 406.854 509.159C407.21 508.682 407.717 508.258 408.376 507.886C409.043 507.508 409.945 507.318 411.081 507.318C412.551 507.318 413.846 507.686 414.967 508.42C416.089 509.155 416.964 510.197 417.592 511.545C418.221 512.894 418.536 514.485 418.536 516.318C418.536 518.167 418.221 519.769 417.592 521.125C416.964 522.473 416.092 523.519 414.979 524.261C413.865 524.996 412.581 525.364 411.126 525.364C410.005 525.364 409.107 525.178 408.433 524.807C407.759 524.428 407.24 524 406.876 523.523C406.513 523.038 406.232 522.636 406.036 522.318H405.808V531.545H403.126ZM405.763 516.273C405.763 517.591 405.956 518.754 406.342 519.761C406.729 520.761 407.293 521.545 408.036 522.114C408.778 522.674 409.687 522.955 410.763 522.955C411.884 522.955 412.82 522.659 413.57 522.068C414.327 521.47 414.895 520.667 415.274 519.659C415.661 518.644 415.854 517.515 415.854 516.273C415.854 515.045 415.664 513.939 415.286 512.955C414.914 511.962 414.35 511.178 413.592 510.602C412.842 510.019 411.899 509.727 410.763 509.727C409.672 509.727 408.755 510.004 408.013 510.557C407.27 511.102 406.71 511.867 406.331 512.852C405.952 513.83 405.763 514.97 405.763 516.273ZM425.308 521.045L433.717 507.545H436.808V525H434.126V511.5L425.763 525H422.626V507.545H425.308V521.045ZM452.22 525V510H447.584C446.538 510 445.716 510.242 445.118 510.727C444.519 511.212 444.22 511.879 444.22 512.727C444.22 513.561 444.489 514.216 445.027 514.693C445.572 515.17 446.319 515.409 447.266 515.409H452.902V517.909H447.266C446.084 517.909 445.065 517.701 444.209 517.284C443.353 516.867 442.694 516.273 442.232 515.5C441.769 514.72 441.538 513.795 441.538 512.727C441.538 511.652 441.781 510.727 442.266 509.955C442.75 509.182 443.444 508.587 444.345 508.17C445.254 507.754 446.334 507.545 447.584 507.545H454.766V525H452.22ZM440.584 525L445.538 516.318H448.447L443.493 525H440.584ZM469.234 521.364L475.325 507.545H477.871L470.325 525H468.143L460.734 507.545H463.234L469.234 521.364ZM462.371 507.545V525H459.689V507.545H462.371ZM476.098 525V507.545H478.78V525H476.098Z" fill="#0E8047"/>
<path d="M556.333 512.354L546.958 522.667L537.583 512.354" stroke="#0E8047" stroke-width="1.5" stroke-linecap="round" stroke-linejoin="round"/>
<rect x="123" y="620" width="464" height="75.9322" rx="15" fill="#60A82A" fill-opacity="0.3"/>
<path d="M214.259 640.727V664H211.44V643.227H199.713V664H196.895V640.727H214.259ZM226.67 664.364C225.095 664.364 223.712 663.989 222.523 663.239C221.341 662.489 220.417 661.439 219.75 660.091C219.091 658.742 218.761 657.167 218.761 655.364C218.761 653.545 219.091 651.958 219.75 650.602C220.417 649.246 221.341 648.193 222.523 647.443C223.712 646.693 225.095 646.318 226.67 646.318C228.246 646.318 229.625 646.693 230.807 647.443C231.996 648.193 232.92 649.246 233.58 650.602C234.246 651.958 234.58 653.545 234.58 655.364C234.58 657.167 234.246 658.742 233.58 660.091C232.92 661.439 231.996 662.489 230.807 663.239C229.625 663.989 228.246 664.364 226.67 664.364ZM226.67 661.955C227.867 661.955 228.852 661.648 229.625 661.034C230.398 660.42 230.97 659.614 231.341 658.614C231.712 657.614 231.898 656.53 231.898 655.364C231.898 654.197 231.712 653.11 231.341 652.102C230.97 651.095 230.398 650.28 229.625 649.659C228.852 649.038 227.867 648.727 226.67 648.727C225.473 648.727 224.489 649.038 223.716 649.659C222.943 650.28 222.371 651.095 222 652.102C221.629 653.11 221.443 654.197 221.443 655.364C221.443 656.53 221.629 657.614 222 658.614C222.371 659.614 222.943 660.42 223.716 661.034C224.489 661.648 225.473 661.955 226.67 661.955ZM247.673 664V646.545H261.401V664H258.719V649.045H250.355V664H247.673ZM266.298 670.545V646.545H268.889V649.318H269.207C269.404 649.015 269.677 648.629 270.026 648.159C270.382 647.682 270.889 647.258 271.548 646.886C272.215 646.508 273.116 646.318 274.253 646.318C275.723 646.318 277.018 646.686 278.139 647.42C279.26 648.155 280.135 649.197 280.764 650.545C281.393 651.894 281.707 653.485 281.707 655.318C281.707 657.167 281.393 658.769 280.764 660.125C280.135 661.473 279.264 662.519 278.151 663.261C277.037 663.996 275.753 664.364 274.298 664.364C273.177 664.364 272.279 664.178 271.605 663.807C270.931 663.428 270.412 663 270.048 662.523C269.685 662.038 269.404 661.636 269.207 661.318H268.98V670.545H266.298ZM268.935 655.273C268.935 656.591 269.128 657.754 269.514 658.761C269.901 659.761 270.465 660.545 271.207 661.114C271.95 661.674 272.859 661.955 273.935 661.955C275.056 661.955 275.991 661.659 276.741 661.068C277.499 660.47 278.067 659.667 278.446 658.659C278.832 657.644 279.026 656.515 279.026 655.273C279.026 654.045 278.836 652.939 278.457 651.955C278.086 650.962 277.522 650.178 276.764 649.602C276.014 649.019 275.071 648.727 273.935 648.727C272.844 648.727 271.927 649.004 271.185 649.557C270.442 650.102 269.882 650.867 269.503 651.852C269.124 652.83 268.935 653.97 268.935 655.273ZM293.116 664.364C291.435 664.364 289.984 663.992 288.764 663.25C287.552 662.5 286.616 661.455 285.957 660.114C285.306 658.765 284.98 657.197 284.98 655.409C284.98 653.621 285.306 652.045 285.957 650.682C286.616 649.311 287.533 648.242 288.707 647.477C289.889 646.705 291.268 646.318 292.844 646.318C293.753 646.318 294.651 646.47 295.537 646.773C296.423 647.076 297.23 647.568 297.957 648.25C298.685 648.924 299.264 649.818 299.696 650.932C300.128 652.045 300.344 653.417 300.344 655.045V656.182H286.889V653.864H297.616C297.616 652.879 297.42 652 297.026 651.227C296.639 650.455 296.086 649.845 295.366 649.398C294.654 648.951 293.813 648.727 292.844 648.727C291.776 648.727 290.851 648.992 290.071 649.523C289.298 650.045 288.704 650.727 288.287 651.568C287.87 652.409 287.662 653.311 287.662 654.273V655.818C287.662 657.136 287.889 658.254 288.344 659.17C288.806 660.08 289.446 660.773 290.264 661.25C291.082 661.72 292.033 661.955 293.116 661.955C293.821 661.955 294.457 661.856 295.026 661.659C295.601 661.455 296.098 661.152 296.514 660.75C296.931 660.341 297.253 659.833 297.48 659.227L300.071 659.955C299.798 660.833 299.34 661.606 298.696 662.273C298.052 662.932 297.257 663.447 296.31 663.818C295.363 664.182 294.298 664.364 293.116 664.364ZM304.423 664V646.545H318.151V664H315.469V649.045H307.105V664H304.423ZM330.139 664.364C328.563 664.364 327.181 663.989 325.991 663.239C324.81 662.489 323.885 661.439 323.219 660.091C322.56 658.742 322.23 657.167 322.23 655.364C322.23 653.545 322.56 651.958 323.219 650.602C323.885 649.246 324.81 648.193 325.991 647.443C327.181 646.693 328.563 646.318 330.139 646.318C331.715 646.318 333.094 646.693 334.276 647.443C335.465 648.193 336.389 649.246 337.048 650.602C337.715 651.958 338.048 653.545 338.048 655.364C338.048 657.167 337.715 658.742 337.048 660.091C336.389 661.439 335.465 662.489 334.276 663.239C333.094 663.989 331.715 664.364 330.139 664.364ZM330.139 661.955C331.336 661.955 332.321 661.648 333.094 661.034C333.866 660.42 334.438 659.614 334.81 658.614C335.181 657.614 335.366 656.53 335.366 655.364C335.366 654.197 335.181 653.11 334.81 652.102C334.438 651.095 333.866 650.28 333.094 649.659C332.321 649.038 331.336 648.727 330.139 648.727C328.942 648.727 327.957 649.038 327.185 649.659C326.412 650.28 325.84 651.095 325.469 652.102C325.098 653.11 324.912 654.197 324.912 655.364C324.912 656.53 325.098 657.614 325.469 658.614C325.84 659.614 326.412 660.42 327.185 661.034C327.957 661.648 328.942 661.955 330.139 661.955ZM340.278 669V661.5H341.733C342.089 661.129 342.396 660.727 342.653 660.295C342.911 659.864 343.134 659.352 343.324 658.761C343.521 658.163 343.688 657.436 343.824 656.58C343.96 655.716 344.081 654.674 344.188 653.455L344.778 646.545H355.869V661.5H358.551V669H355.869V664H342.96V669H340.278ZM344.778 661.5H353.188V649.045H347.278L346.824 653.455C346.634 655.28 346.4 656.875 346.119 658.239C345.839 659.602 345.392 660.689 344.778 661.5ZM367.247 664.409C366.141 664.409 365.137 664.201 364.236 663.784C363.334 663.36 362.618 662.75 362.088 661.955C361.558 661.152 361.293 660.182 361.293 659.045C361.293 658.045 361.49 657.235 361.884 656.614C362.277 655.985 362.804 655.492 363.463 655.136C364.122 654.78 364.849 654.515 365.645 654.341C366.448 654.159 367.255 654.015 368.065 653.909C369.126 653.773 369.986 653.67 370.645 653.602C371.312 653.527 371.796 653.402 372.099 653.227C372.41 653.053 372.565 652.75 372.565 652.318V652.227C372.565 651.106 372.259 650.235 371.645 649.614C371.039 648.992 370.118 648.682 368.884 648.682C367.603 648.682 366.599 648.962 365.872 649.523C365.145 650.083 364.634 650.682 364.338 651.318L361.793 650.409C362.247 649.348 362.853 648.523 363.611 647.932C364.376 647.333 365.209 646.917 366.111 646.682C367.02 646.439 367.914 646.318 368.793 646.318C369.353 646.318 369.997 646.386 370.724 646.523C371.459 646.652 372.168 646.92 372.849 647.33C373.539 647.739 374.111 648.356 374.565 649.182C375.02 650.008 375.247 651.114 375.247 652.5V664H372.565V661.636H372.429C372.247 662.015 371.944 662.42 371.52 662.852C371.096 663.284 370.531 663.652 369.827 663.955C369.122 664.258 368.262 664.409 367.247 664.409ZM367.656 662C368.717 662 369.611 661.792 370.338 661.375C371.073 660.958 371.626 660.42 371.997 659.761C372.376 659.102 372.565 658.409 372.565 657.682V655.227C372.452 655.364 372.202 655.489 371.815 655.602C371.437 655.708 370.997 655.803 370.497 655.886C370.005 655.962 369.524 656.03 369.054 656.091C368.592 656.144 368.217 656.189 367.929 656.227C367.232 656.318 366.58 656.466 365.974 656.67C365.376 656.867 364.891 657.167 364.52 657.568C364.156 657.962 363.974 658.5 363.974 659.182C363.974 660.114 364.319 660.818 365.009 661.295C365.705 661.765 366.588 662 367.656 662ZM380.142 664V646.545H387.278C389.157 646.545 390.65 646.97 391.756 647.818C392.862 648.667 393.415 649.788 393.415 651.182C393.415 652.242 393.1 653.064 392.472 653.648C391.843 654.223 391.036 654.614 390.051 654.818C390.695 654.909 391.32 655.136 391.926 655.5C392.54 655.864 393.047 656.364 393.449 657C393.85 657.629 394.051 658.402 394.051 659.318C394.051 660.212 393.824 661.011 393.369 661.716C392.915 662.42 392.263 662.977 391.415 663.386C390.566 663.795 389.551 664 388.369 664H380.142ZM382.688 661.545H388.369C389.294 661.545 390.017 661.326 390.54 660.886C391.063 660.447 391.324 659.848 391.324 659.091C391.324 658.189 391.063 657.481 390.54 656.966C390.017 656.443 389.294 656.182 388.369 656.182H382.688V661.545ZM382.688 653.864H387.278C387.998 653.864 388.616 653.765 389.131 653.568C389.646 653.364 390.04 653.076 390.312 652.705C390.593 652.326 390.733 651.879 390.733 651.364C390.733 650.629 390.426 650.053 389.812 649.636C389.199 649.212 388.354 649 387.278 649H382.688V653.864ZM403.247 664.409C402.141 664.409 401.137 664.201 400.236 663.784C399.334 663.36 398.618 662.75 398.088 661.955C397.558 661.152 397.293 660.182 397.293 659.045C397.293 658.045 397.49 657.235 397.884 656.614C398.277 655.985 398.804 655.492 399.463 655.136C400.122 654.78 400.849 654.515 401.645 654.341C402.448 654.159 403.255 654.015 404.065 653.909C405.126 653.773 405.986 653.67 406.645 653.602C407.312 653.527 407.796 653.402 408.099 653.227C408.41 653.053 408.565 652.75 408.565 652.318V652.227C408.565 651.106 408.259 650.235 407.645 649.614C407.039 648.992 406.118 648.682 404.884 648.682C403.603 648.682 402.599 648.962 401.872 649.523C401.145 650.083 400.634 650.682 400.338 651.318L397.793 650.409C398.247 649.348 398.853 648.523 399.611 647.932C400.376 647.333 401.209 646.917 402.111 646.682C403.02 646.439 403.914 646.318 404.793 646.318C405.353 646.318 405.997 646.386 406.724 646.523C407.459 646.652 408.168 646.92 408.849 647.33C409.539 647.739 410.111 648.356 410.565 649.182C411.02 650.008 411.247 651.114 411.247 652.5V664H408.565V661.636H408.429C408.247 662.015 407.944 662.42 407.52 662.852C407.096 663.284 406.531 663.652 405.827 663.955C405.122 664.258 404.262 664.409 403.247 664.409ZM403.656 662C404.717 662 405.611 661.792 406.338 661.375C407.073 660.958 407.626 660.42 407.997 659.761C408.376 659.102 408.565 658.409 408.565 657.682V655.227C408.452 655.364 408.202 655.489 407.815 655.602C407.437 655.708 406.997 655.803 406.497 655.886C406.005 655.962 405.524 656.03 405.054 656.091C404.592 656.144 404.217 656.189 403.929 656.227C403.232 656.318 402.58 656.466 401.974 656.67C401.376 656.867 400.891 657.167 400.52 657.568C400.156 657.962 399.974 658.5 399.974 659.182C399.974 660.114 400.319 660.818 401.009 661.295C401.705 661.765 402.588 662 403.656 662ZM413.767 649.045V646.545H427.949V649.045H422.222V664H419.54V649.045H413.767ZM438.273 664.364C436.591 664.364 435.14 663.992 433.92 663.25C432.708 662.5 431.773 661.455 431.114 660.114C430.462 658.765 430.136 657.197 430.136 655.409C430.136 653.621 430.462 652.045 431.114 650.682C431.773 649.311 432.689 648.242 433.864 647.477C435.045 646.705 436.424 646.318 438 646.318C438.909 646.318 439.807 646.47 440.693 646.773C441.58 647.076 442.386 647.568 443.114 648.25C443.841 648.924 444.42 649.818 444.852 650.932C445.284 652.045 445.5 653.417 445.5 655.045V656.182H432.045V653.864H442.773C442.773 652.879 442.576 652 442.182 651.227C441.795 650.455 441.242 649.845 440.523 649.398C439.811 648.951 438.97 648.727 438 648.727C436.932 648.727 436.008 648.992 435.227 649.523C434.455 650.045 433.86 650.727 433.443 651.568C433.027 652.409 432.818 653.311 432.818 654.273V655.818C432.818 657.136 433.045 658.254 433.5 659.17C433.962 660.08 434.602 660.773 435.42 661.25C436.239 661.72 437.189 661.955 438.273 661.955C438.977 661.955 439.614 661.856 440.182 661.659C440.758 661.455 441.254 661.152 441.67 660.75C442.087 660.341 442.409 659.833 442.636 659.227L445.227 659.955C444.955 660.833 444.496 661.606 443.852 662.273C443.208 662.932 442.413 663.447 441.466 663.818C440.519 664.182 439.455 664.364 438.273 664.364ZM448.034 664V661.5H448.67C449.193 661.5 449.629 661.398 449.977 661.193C450.326 660.981 450.606 660.614 450.818 660.091C451.038 659.561 451.205 658.826 451.318 657.886C451.439 656.939 451.527 655.735 451.58 654.273L451.898 646.545H463.534V664H460.852V649.045H454.443L454.17 655.273C454.11 656.705 453.981 657.966 453.784 659.057C453.595 660.14 453.303 661.049 452.909 661.784C452.523 662.519 452.008 663.072 451.364 663.443C450.72 663.814 449.913 664 448.943 664H448.034ZM478.955 664V649H474.318C473.273 649 472.451 649.242 471.852 649.727C471.254 650.212 470.955 650.879 470.955 651.727C470.955 652.561 471.223 653.216 471.761 653.693C472.307 654.17 473.053 654.409 474 654.409H479.636V656.909H474C472.818 656.909 471.799 656.701 470.943 656.284C470.087 655.867 469.428 655.273 468.966 654.5C468.504 653.72 468.273 652.795 468.273 651.727C468.273 650.652 468.515 649.727 469 648.955C469.485 648.182 470.178 647.587 471.08 647.17C471.989 646.754 473.068 646.545 474.318 646.545H481.5V664H478.955ZM467.318 664L472.273 655.318H475.182L470.227 664H467.318ZM495.969 660.364L502.06 646.545H504.605L497.06 664H494.878L487.469 646.545H489.969L495.969 660.364ZM489.105 646.545V664H486.423V646.545H489.105ZM502.832 664V646.545H505.514V664H502.832Z" fill="#0E8047"/>
<path d="M561.333 657.354L551.958 667.667L542.583 657.354" stroke="#0E8047" stroke-width="1.5" stroke-linecap="round" stroke-linejoin="round"/>
</g>
<defs>
<filter id="filter0_d_185_62" x="0" y="0.5" width="702" height="829" filterUnits="userSpaceOnUse" color-interpolation-filters="sRGB">
<feFlood flood-opacity="0" result="BackgroundImageFix"/>
<feColorMatrix in="SourceAlpha" type="matrix" values="0 0 0 0 0 0 0 0 0 0 0 0 0 0 0 0 0 0 127 0" result="hardAlpha"/>
<feOffset dy="0.5"/>
<feGaussianBlur stdDeviation="2"/>
<feComposite in2="hardAlpha" operator="out"/>
<feColorMatrix type="matrix" values="0 0 0 0 0 0 0 0 0 0 0 0 0 0 0 0 0 0 0.25 0"/>
<feBlend mode="normal" in2="BackgroundImageFix" result="effect1_dropShadow_185_62"/>
<feBlend mode="normal" in="SourceGraphic" in2="effect1_dropShadow_185_62" result="shape"/>
</filter>
<filter id="filter1_d_185_62" x="156" y="35.1636" width="352.151" height="256.401" filterUnits="userSpaceOnUse" color-interpolation-filters="sRGB">
<feFlood flood-opacity="0" result="BackgroundImageFix"/>
<feColorMatrix in="SourceAlpha" type="matrix" values="0 0 0 0 0 0 0 0 0 0 0 0 0 0 0 0 0 0 127 0" result="hardAlpha"/>
<feOffset dy="0.5"/>
<feGaussianBlur stdDeviation="2"/>
<feComposite in2="hardAlpha" operator="out"/>
<feColorMatrix type="matrix" values="0 0 0 0 0 0 0 0 0 0 0 0 0 0 0 0 0 0 0.25 0"/>
<feBlend mode="normal" in2="BackgroundImageFix" result="effect1_dropShadow_185_62"/>
<feBlend mode="normal" in="SourceGraphic" in2="effect1_dropShadow_185_62" result="shape"/>
</filter>
</defs>
</svg>
